<svg xmlns="http://www.w3.org/2000/svg" xmlns:xlink="http://www.w3.org/1999/xlink" version="1.1" width="1000" height="1000" viewBox="0 0 1000 1000" xml:space="preserve">
<desc>Created with Fabric.js 3.5.0</desc>
<defs>
</defs>
<rect x="0" y="0" width="100%" height="100%" fill="rgba(0,0,0,0)"/>
<g transform="matrix(0.1114 0 0 0.1114 245.56 447.7921)" id="199814">
<g style="" vector-effect="non-scaling-stroke">
		<g transform="matrix(50 0 0 50 -72.4261 0.0075)" id="700717">
<path style="stroke: none; stroke-width: 1; stroke-dasharray: none; stroke-linecap: butt; stroke-dashoffset: 0; stroke-linejoin: miter; stroke-miterlimit: 4; is-custom-font: none; font-file-url: none; fill: rgb(255,255,255); fill-rule: nonzero; opacity: 1;" transform=" translate(-6.5515, -8.0001)" d="M 7.00017 5.5 C 5.61936 5.5 4.5 6.61936 4.5 8.00017 C 4.5 9.38097 5.61936 10.5003 7.00017 10.5003 C 7.71226 10.5003 8.3538 10.2036 8.81009 9.725 C 9.09591 9.4252 9.57065 9.41386 9.87045 9.69968 C 10.1703 9.9855 10.1816 10.4602 9.89577 10.76 C 9.16817 11.5232 8.13926 12.0003 7.00017 12.0003 C 4.79094 12.0003 3 10.2094 3 8.00017 C 3 5.79094 4.79094 4 7.00017 4 C 8.13445 4 9.15952 4.47309 9.88658 5.23069 C 10.1734 5.52954 10.1636 6.00432 9.86477 6.29112 C 9.56591 6.57793 9.09114 6.56817 8.80433 6.26931 C 8.3484 5.79424 7.70928 5.5 7.00017 5.5 Z" stroke-linecap="round"/>
</g>
		<g transform="matrix(50 0 0 50 -89.2827 0.0006)" id="449006">
<path style="stroke: none; stroke-width: 1; stroke-dasharray: none; stroke-linecap: butt; stroke-dashoffset: 0; stroke-linejoin: miter; stroke-miterlimit: 4; is-custom-font: none; font-file-url: none; fill: rgb(255,255,255); fill-rule: nonzero; opacity: 1;" transform=" translate(-6.2143, -8)" d="M 6.58638 0.102166 C 6.8199 -0.0340553 7.10867 -0.0340553 7.34219 0.102166 L 12.0565 2.85217 C 12.4143 3.06088 12.5351 3.52011 12.3264 3.8779 C 12.1177 4.23569 11.6585 4.35654 11.3007 4.14783 L 6.96429 1.61828 L 1.5 4.80578 V 11.1942 L 6.96429 14.3817 L 11.3007 11.8522 C 11.6585 11.6435 12.1177 11.7643 12.3264 12.1221 C 12.5351 12.4799 12.4143 12.9391 12.0565 13.1478 L 7.34219 15.8978 C 7.10867 16.0341 6.8199 16.0341 6.58638 15.8978 L 0.372097 12.2728 C 0.141683 12.1384 0 11.8918 0 11.625 V 4.375 C 0 4.10825 0.141683 3.86157 0.372097 3.72717 L 6.58638 0.102166 Z" stroke-linecap="round"/>
</g>
		<g transform="matrix(50 0 0 50 208.995 0)" id="340310">
<path style="stroke: none; stroke-width: 1; stroke-dasharray: none; stroke-linecap: butt; stroke-dashoffset: 0; stroke-linejoin: miter; stroke-miterlimit: 4; is-custom-font: none; font-file-url: none; fill: rgb(255,255,255); fill-rule: nonzero; opacity: 1;" transform=" translate(-12.1799, -8)" d="M 12.1799 5.25 C 12.456 5.25 12.6799 5.47386 12.6799 5.75 V 10.25 C 12.6799 10.5261 12.456 10.75 12.1799 10.75 C 11.9038 10.75 11.6799 10.5261 11.6799 10.25 V 5.75 C 11.6799 5.47386 11.9038 5.25 12.1799 5.25 Z" stroke-linecap="round"/>
</g>
		<g transform="matrix(50 0 0 50 316.005 0)" id="826143">
<path style="stroke: none; stroke-width: 1; stroke-dasharray: none; stroke-linecap: butt; stroke-dashoffset: 0; stroke-linejoin: miter; stroke-miterlimit: 4; is-custom-font: none; font-file-url: none; fill: rgb(255,255,255); fill-rule: nonzero; opacity: 1;" transform=" translate(-14.3201, -8)" d="M 14.3201 5.25 C 14.5962 5.25 14.8201 5.47386 14.8201 5.75 V 10.25 C 14.8201 10.5261 14.5962 10.75 14.3201 10.75 C 14.044 10.75 13.8201 10.5261 13.8201 10.25 V 5.75 C 13.8201 5.47386 14.044 5.25 14.3201 5.25 Z" stroke-linecap="round"/>
</g>
		<g transform="matrix(50 0 0 50 262.5 -53.5035)" id="309558">
<path style="stroke: none; stroke-width: 1; stroke-dasharray: none; stroke-linecap: butt; stroke-dashoffset: 0; stroke-linejoin: miter; stroke-miterlimit: 4; is-custom-font: none; font-file-url: none; fill: rgb(255,255,255); fill-rule: nonzero; opacity: 1;" transform=" translate(-13.25, -6.9299)" d="M 10.5 6.92993 C 10.5 6.65379 10.7239 6.42993 11 6.42993 H 15.5 C 15.7761 6.42993 16 6.65379 16 6.92993 C 16 7.20607 15.7761 7.42993 15.5 7.42993 H 11 C 10.7239 7.42993 10.5 7.20607 10.5 6.92993 Z" stroke-linecap="round"/>
</g>
		<g transform="matrix(50 0 0 50 262.5 53.5035)" id="582192">
<path style="stroke: none; stroke-width: 1; stroke-dasharray: none; stroke-linecap: butt; stroke-dashoffset: 0; stroke-linejoin: miter; stroke-miterlimit: 4; is-custom-font: none; font-file-url: none; fill: rgb(255,255,255); fill-rule: nonzero; opacity: 1;" transform=" translate(-13.25, -9.0701)" d="M 10.5 9.07007 C 10.5 8.79393 10.7239 8.57007 11 8.57007 H 15.5 C 15.7761 8.57007 16 8.79393 16 9.07007 C 16 9.34621 15.7761 9.57007 15.5 9.57007 H 11 C 10.7239 9.57007 10.5 9.34621 10.5 9.07007 Z" stroke-linecap="round"/>
</g>
</g>
</g>
<g transform="matrix(4.0832 0 0 3.7888 667.2152 551.5135)" id="75686">
<path style="stroke: none; stroke-width: 0; stroke-dasharray: none; stroke-linecap: butt; stroke-dashoffset: 0; stroke-linejoin: miter; stroke-miterlimit: 4; is-custom-font: none; font-file-url: none; fill: rgb(255,255,255); fill-rule: nonzero; opacity: 1;" vector-effect="non-scaling-stroke" transform=" translate(-11.9999, -11.9998)" d="M 8.851 18.56 s -0.917 0.534 0.653 0.714 c 1.902 0.218 2.874 0.187 4.969 -0.211 c 0 0 0.552 0.346 1.321 0.646 c -4.699 2.013 -10.633 -0.118 -6.943 -1.149 M 8.276 15.933 s -1.028 0.761 0.542 0.924 c 2.032 0.209 3.636 0.227 6.413 -0.308 c 0 0 0.384 0.389 0.987 0.602 c -5.679 1.661 -12.007 0.13 -7.942 -1.218 M 13.116 11.475 c 1.158 1.333 -0.304 2.533 -0.304 2.533 s 2.939 -1.518 1.589 -3.418 c -1.261 -1.772 -2.228 -2.652 3.007 -5.688 c 0 -0.001 -8.216 2.051 -4.292 6.573 M 19.33 20.504 s 0.679 0.559 -0.747 0.991 c -2.712 0.822 -11.288 1.069 -13.669 0.033 c -0.856 -0.373 0.75 -0.89 1.254 -0.998 c 0.527 -0.114 0.828 -0.093 0.828 -0.093 c -0.953 -0.671 -6.156 1.317 -2.643 1.887 c 9.58 1.553 17.462 -0.7 14.977 -1.82 M 9.292 13.21 s -4.362 1.036 -1.544 1.412 c 1.189 0.159 3.561 0.123 5.77 -0.062 c 1.806 -0.152 3.618 -0.477 3.618 -0.477 s -0.637 0.272 -1.098 0.587 c -4.429 1.165 -12.986 0.623 -10.522 -0.568 c 2.082 -1.006 3.776 -0.892 3.776 -0.892 M 17.116 17.584 c 4.503 -2.34 2.421 -4.589 0.968 -4.285 c -0.355 0.074 -0.515 0.138 -0.515 0.138 s 0.132 -0.207 0.385 -0.297 c 2.875 -1.011 5.086 2.981 -0.928 4.562 c 0 -0.001 0.07 -0.062 0.09 -0.118 M 14.401 0 s 2.494 2.494 -2.365 6.33 c -3.896 3.077 -0.888 4.832 -0.001 6.836 c -2.274 -2.053 -3.943 -3.858 -2.824 -5.539 c 1.644 -2.469 6.197 -3.665 5.19 -7.627 M 9.734 23.924 c 4.322 0.277 10.959 -0.153 11.116 -2.198 c 0 0 -0.302 0.775 -3.572 1.391 c -3.688 0.694 -8.239 0.613 -10.937 0.168 c 0 -0.001 0.553 0.457 3.393 0.639" stroke-linecap="round"/>
</g>
<g transform="matrix(3.9622 0 0 3.9622 592.7955 395.6178)" id="798480">
<path style="stroke: none; stroke-width: 0; stroke-dasharray: none; stroke-linecap: butt; stroke-dashoffset: 0; stroke-linejoin: miter; stroke-miterlimit: 4; is-custom-font: none; font-file-url: none; fill: rgb(255,255,255); fill-rule: nonzero; opacity: 1;" vector-effect="non-scaling-stroke" transform=" translate(-12.06, -12)" d="M 14.31 0.18 l 0.9 0.2 l 0.73 0.26 l 0.59 0.3 l 0.45 0.32 l 0.34 0.34 l 0.25 0.34 l 0.16 0.33 l 0.1 0.3 l 0.04 0.26 l 0.02 0.2 l -0.01 0.13 V 8.5 l -0.05 0.63 l -0.13 0.55 l -0.21 0.46 l -0.26 0.38 l -0.3 0.31 l -0.33 0.25 l -0.35 0.19 l -0.35 0.14 l -0.33 0.1 l -0.3 0.07 l -0.26 0.04 l -0.21 0.02 H 8.83 l -0.69 0.05 l -0.59 0.14 l -0.5 0.22 l -0.41 0.27 l -0.33 0.32 l -0.27 0.35 l -0.2 0.36 l -0.15 0.37 l -0.1 0.35 l -0.07 0.32 l -0.04 0.27 l -0.02 0.21 v 3.06 H 3.23 l -0.21 -0.03 l -0.28 -0.07 l -0.32 -0.12 l -0.35 -0.18 l -0.36 -0.26 l -0.36 -0.36 l -0.35 -0.46 l -0.32 -0.59 l -0.28 -0.73 l -0.21 -0.88 l -0.14 -1.05 L 0 11.97 l 0.06 -1.22 l 0.16 -1.04 l 0.24 -0.87 l 0.32 -0.71 l 0.36 -0.57 l 0.4 -0.44 l 0.42 -0.33 l 0.42 -0.24 l 0.4 -0.16 l 0.36 -0.1 l 0.32 -0.05 l 0.24 -0.01 h 0.16 l 0.06 0.01 h 8.16 v -0.83 H 6.24 l -0.01 -2.75 l -0.02 -0.37 l 0.05 -0.34 l 0.11 -0.31 l 0.17 -0.28 l 0.25 -0.26 l 0.31 -0.23 l 0.38 -0.2 l 0.44 -0.18 l 0.51 -0.15 l 0.58 -0.12 l 0.64 -0.1 l 0.71 -0.06 l 0.77 -0.04 l 0.84 -0.02 l 1.27 0.05 l 1.07 0.13 z m -6.3 1.98 l -0.23 0.33 l -0.08 0.41 l 0.08 0.41 l 0.23 0.34 l 0.33 0.22 l 0.41 0.09 l 0.41 -0.09 l 0.33 -0.22 l 0.23 -0.34 l 0.08 -0.41 l -0.08 -0.41 l -0.23 -0.33 l -0.33 -0.22 l -0.41 -0.09 l -0.41 0.09 l -0.33 0.22 z M 21.1 6.11 l 0.28 0.06 l 0.32 0.12 l 0.35 0.18 l 0.36 0.27 l 0.36 0.35 l 0.35 0.47 l 0.32 0.59 l 0.28 0.73 l 0.21 0.88 l 0.14 1.04 l 0.05 1.23 l -0.06 1.23 l -0.16 1.04 l -0.24 0.86 l -0.32 0.71 l -0.36 0.57 l -0.4 0.45 l -0.42 0.33 l -0.42 0.24 l -0.4 0.16 l -0.36 0.09 l -0.32 0.05 l -0.24 0.02 l -0.16 -0.01 h -8.22 v 0.82 h 5.84 l 0.01 2.76 l 0.02 0.36 l -0.05 0.34 l -0.11 0.31 l -0.17 0.29 l -0.25 0.25 l -0.31 0.24 l -0.38 0.2 l -0.44 0.17 l -0.51 0.15 l -0.58 0.13 l -0.64 0.09 l -0.71 0.07 l -0.77 0.04 l -0.84 0.01 l -1.27 -0.04 l -1.07 -0.14 l -0.9 -0.2 l -0.73 -0.25 l -0.59 -0.3 l -0.45 -0.33 l -0.34 -0.34 l -0.25 -0.34 l -0.16 -0.33 l -0.1 -0.3 l -0.04 -0.25 l -0.02 -0.2 l 0.01 -0.13 v -5.34 l 0.05 -0.64 l 0.13 -0.54 l 0.21 -0.46 l 0.26 -0.38 l 0.3 -0.32 l 0.33 -0.24 l 0.35 -0.2 l 0.35 -0.14 l 0.33 -0.1 l 0.3 -0.06 l 0.26 -0.04 l 0.21 -0.02 l 0.13 -0.01 h 5.84 l 0.69 -0.05 l 0.59 -0.14 l 0.5 -0.21 l 0.41 -0.28 l 0.33 -0.32 l 0.27 -0.35 l 0.2 -0.36 l 0.15 -0.36 l 0.1 -0.35 l 0.07 -0.32 l 0.04 -0.28 l 0.02 -0.21 V 6.07 h 2.09 l 0.14 0.01 l 0.21 0.03 z m -6.47 14.25 l -0.23 0.33 l -0.08 0.41 l 0.08 0.41 l 0.23 0.33 l 0.33 0.23 l 0.41 0.08 l 0.41 -0.08 l 0.33 -0.23 l 0.23 -0.33 l 0.08 -0.41 l -0.08 -0.41 l -0.23 -0.33 l -0.33 -0.23 l -0.41 -0.08 l -0.41 0.08 l -0.33 0.23 z" stroke-linecap="round"/>
</g>
<g transform="matrix(0.181 0 0 0.181 388.8514 327.1687)" id="784588">
<path style="stroke: none; stroke-width: 0; stroke-dasharray: none; stroke-linecap: butt; stroke-dashoffset: 0; stroke-linejoin: miter; stroke-miterlimit: 4; is-custom-font: none; font-file-url: none; fill: rgb(255,255,255); fill-rule: nonzero; opacity: 1;" vector-effect="non-scaling-stroke" transform=" translate(-255.9851, -255.9991)" d="M 504.4 115.83 a 5.72 5.72 0 0 0 -0.28 -0.68 a 8.52 8.52 0 0 0 -0.53 -1.25 a 6 6 0 0 0 -0.54 -0.71 a 9.36 9.36 0 0 0 -0.72 -0.94 c -0.23 -0.22 -0.52 -0.4 -0.77 -0.6 a 8.84 8.84 0 0 0 -0.9 -0.68 L 404.4 55.55 a 8 8 0 0 0 -8 0 L 300.12 111 h 0 a 8.07 8.07 0 0 0 -0.88 0.69 a 7.68 7.68 0 0 0 -0.78 0.6 a 8.23 8.23 0 0 0 -0.72 0.93 c -0.17 0.24 -0.39 0.45 -0.54 0.71 a 9.7 9.7 0 0 0 -0.52 1.25 c -0.08 0.23 -0.21 0.44 -0.28 0.68 a 8.08 8.08 0 0 0 -0.28 2.08 V 223.18 l -80.22 46.19 V 63.44 a 7.8 7.8 0 0 0 -0.28 -2.09 c -0.06 -0.24 -0.2 -0.45 -0.28 -0.68 a 8.35 8.35 0 0 0 -0.52 -1.24 c -0.14 -0.26 -0.37 -0.47 -0.54 -0.72 a 9.36 9.36 0 0 0 -0.72 -0.94 a 9.46 9.46 0 0 0 -0.78 -0.6 a 9.8 9.8 0 0 0 -0.88 -0.68 h 0 L 115.61 1.07 a 8 8 0 0 0 -8 0 L 11.34 56.49 h 0 a 6.52 6.52 0 0 0 -0.88 0.69 a 7.81 7.81 0 0 0 -0.79 0.6 a 8.15 8.15 0 0 0 -0.71 0.93 c -0.18 0.25 -0.4 0.46 -0.55 0.72 a 7.88 7.88 0 0 0 -0.51 1.24 a 6.46 6.46 0 0 0 -0.29 0.67 a 8.18 8.18 0 0 0 -0.28 2.1 v 329.7 a 8 8 0 0 0 4 6.95 l 192.5 110.84 a 8.83 8.83 0 0 0 1.33 0.54 c 0.21 0.08 0.41 0.2 0.63 0.26 a 7.92 7.92 0 0 0 4.1 0 c 0.2 -0.05 0.37 -0.16 0.55 -0.22 a 8.6 8.6 0 0 0 1.4 -0.58 L 404.4 400.09 a 8 8 0 0 0 4 -6.95 V 287.88 l 92.24 -53.11 a 8 8 0 0 0 4 -7 V 117.92 A 8.63 8.63 0 0 0 504.4 115.83 Z M 111.6 17.28 h 0 l 80.19 46.15 l -80.2 46.18 L 31.41 63.44 Z m 88.25 60 V 278.6 l -46.53 26.79 l -33.69 19.4 V 123.5 l 46.53 -26.79 Z m 0 412.78 L 23.37 388.5 V 77.32 L 57.06 96.7 l 46.52 26.8 V 338.68 a 6.94 6.94 0 0 0 0.12 0.9 a 8 8 0 0 0 0.16 1.18 h 0 a 5.92 5.92 0 0 0 0.38 0.9 a 6.38 6.38 0 0 0 0.42 1 v 0 a 8.54 8.54 0 0 0 0.6 0.78 a 7.62 7.62 0 0 0 0.66 0.84 l 0 0 c 0.23 0.22 0.52 0.38 0.77 0.58 a 8.93 8.93 0 0 0 0.86 0.66 l 0 0 l 0 0 l 92.19 52.18 Z m 8 -106.17 l -80.06 -45.32 l 84.09 -48.41 l 92.26 -53.11 l 80.13 46.13 l -58.8 33.56 Z m 184.52 4.57 L 215.88 490.11 V 397.8 L 346.6 323.2 l 45.77 -26.15 Z m 0 -119.13 L 358.68 250 l -46.53 -26.79 V 131.79 l 33.69 19.4 L 392.37 178 Z m 8 -105.28 l -80.2 -46.17 l 80.2 -46.16 l 80.18 46.15 Z m 8 105.28 V 178 L 455 151.19 l 33.68 -19.4 v 91.39 h 0 Z" stroke-linecap="round"/>
</g>
<g transform="matrix(0.1814 0 0 0.1814 279.4384 135.3134)" id="124805">
<g style="" vector-effect="non-scaling-stroke">
		<g transform="matrix(21.3333 0 0 21.3333 -139.9254 -148.4587)" id="772352">
<path style="stroke: none; stroke-width: 1; stroke-dasharray: none; stroke-linecap: butt; stroke-dashoffset: 0; stroke-linejoin: miter; stroke-miterlimit: 4; is-custom-font: none; font-file-url: none; fill: rgb(255,255,255); fill-rule: evenodd; opacity: 1;" transform=" translate(-5.441, -5.041)" d="M 5.457 4.257 c -0.277 0 -0.472 0.033 -0.669 0.082 v 0.033 H 4.82 c 0.132 0.261 0.36 0.441 0.522 0.67 c 0.131 0.261 0.246 0.521 0.376 0.783 C 5.734 5.808 5.75 5.791 5.75 5.791 c 0.23 -0.162 0.344 -0.424 0.344 -0.816 C 5.996 4.86 5.98 4.747 5.898 4.632 C 5.8 4.469 5.588 4.388 5.457 4.257 L 5.457 4.257 z" stroke-linecap="round"/>
</g>
		<g transform="matrix(21.3333 0 0 21.3333 -0.0117 0.0092)" id="166982">
<path style="stroke: none; stroke-width: 1; stroke-dasharray: none; stroke-linecap: butt; stroke-dashoffset: 0; stroke-linejoin: miter; stroke-miterlimit: 4; is-custom-font: none; font-file-url: none; fill: rgb(255,255,255); fill-rule: evenodd; opacity: 1;" transform=" translate(-11.9995, -12.0005)" d="M 22.107 18.442 c -1.307 -0.033 -2.318 0.098 -3.167 0.457 c -0.245 0.098 -0.636 0.098 -0.67 0.408 c 0.131 0.13 0.147 0.342 0.262 0.523 c 0.196 0.326 0.537 0.766 0.848 0.996 c 0.343 0.261 0.686 0.521 1.045 0.75 c 0.636 0.393 1.355 0.621 1.974 1.013 c 0.36 0.228 0.718 0.522 1.079 0.767 c 0.179 0.13 0.292 0.343 0.521 0.424 V 23.73 c -0.115 -0.146 -0.147 -0.359 -0.261 -0.523 c -0.163 -0.162 -0.327 -0.31 -0.49 -0.472 c -0.474 -0.637 -1.062 -1.191 -1.697 -1.648 c -0.523 -0.36 -1.666 -0.85 -1.877 -1.452 c 0 0 -0.017 -0.017 -0.033 -0.033 c 0.359 -0.033 0.784 -0.164 1.127 -0.263 c 0.554 -0.146 1.06 -0.113 1.631 -0.26 c 0.262 -0.066 0.523 -0.148 0.785 -0.228 v -0.148 c -0.295 -0.293 -0.506 -0.686 -0.817 -0.963 c -0.832 -0.718 -1.747 -1.419 -2.693 -2.008 c -0.507 -0.327 -1.16 -0.538 -1.699 -0.816 c -0.195 -0.098 -0.521 -0.146 -0.636 -0.311 c -0.294 -0.359 -0.458 -0.832 -0.67 -1.257 c -0.473 -0.897 -0.931 -1.892 -1.338 -2.84 c -0.294 -0.636 -0.473 -1.272 -0.832 -1.86 c -1.682 -2.775 -3.51 -4.456 -6.317 -6.105 C 7.579 2.2 6.861 2.053 6.094 1.874 C 5.685 1.856 5.278 1.825 4.87 1.809 C 4.608 1.694 4.346 1.384 4.118 1.237 c -0.931 -0.587 -3.329 -1.86 -4.015 -0.179 c -0.441 1.062 0.653 2.106 1.029 2.645 c 0.277 0.375 0.637 0.8 0.832 1.224 C 2.078 5.204 2.11 5.498 2.225 5.791 c 0.261 0.718 0.505 1.518 0.849 2.188 C 3.253 8.322 3.449 8.682 3.677 8.99 c 0.132 0.181 0.36 0.261 0.409 0.556 C 3.858 9.872 3.84 10.362 3.71 10.77 c -0.587 1.845 -0.359 4.13 0.474 5.484 c 0.261 0.408 0.881 1.306 1.714 0.963 c 0.734 -0.293 0.571 -1.224 0.783 -2.039 c 0.049 -0.197 0.016 -0.327 0.114 -0.457 v 0.033 c 0.228 0.456 0.457 0.896 0.67 1.355 c 0.506 0.799 1.387 1.632 2.123 2.186 c 0.391 0.295 0.701 0.8 1.191 0.98 v -0.049 h -0.032 c -0.098 -0.146 -0.245 -0.212 -0.375 -0.326 c -0.294 -0.294 -0.62 -0.653 -0.849 -0.98 c -0.685 -0.914 -1.29 -1.926 -1.828 -2.971 c -0.262 -0.507 -0.49 -1.062 -0.702 -1.567 c -0.098 -0.195 -0.098 -0.49 -0.261 -0.587 c -0.246 0.359 -0.604 0.669 -0.783 1.109 c -0.31 0.703 -0.343 1.568 -0.458 2.466 c -0.065 0.017 -0.032 0 -0.065 0.032 c -0.522 -0.13 -0.701 -0.669 -0.898 -1.125 c -0.489 -1.16 -0.572 -3.021 -0.147 -4.36 c 0.114 -0.342 0.605 -1.419 0.408 -1.746 C 4.689 8.859 4.363 8.682 4.184 8.436 c -0.212 -0.31 -0.442 -0.701 -0.587 -1.045 c -0.392 -0.914 -0.589 -1.926 -1.012 -2.84 c -0.196 -0.425 -0.54 -0.866 -0.816 -1.257 C 1.458 2.853 1.115 2.543 0.87 2.021 c -0.081 -0.18 -0.195 -0.474 -0.065 -0.669 c 0.032 -0.131 0.098 -0.18 0.229 -0.213 C 1.245 0.96 1.85 1.188 2.061 1.286 C 2.666 1.53 3.172 1.76 3.677 2.102 c 0.229 0.164 0.474 0.474 0.767 0.556 h 0.343 c 0.522 0.113 1.11 0.032 1.6 0.179 c 0.864 0.277 1.648 0.685 2.35 1.126 c 2.138 1.355 3.901 3.282 5.092 5.583 c 0.196 0.375 0.279 0.718 0.458 1.109 c 0.343 0.802 0.768 1.618 1.11 2.4 c 0.343 0.767 0.67 1.55 1.16 2.188 c 0.244 0.342 1.224 0.522 1.665 0.702 c 0.326 0.146 0.832 0.277 1.126 0.456 c 0.555 0.342 1.109 0.735 1.632 1.111 C 21.241 17.708 22.058 18.115 22.107 18.442 L 22.107 18.442 z" stroke-linecap="round"/>
</g>
</g>
</g>
<g transform="matrix(1.3671 0 0 1.3671 500.0153 500.0152)" id="982788">
<g style="" vector-effect="non-scaling-stroke">
		<g transform="matrix(1 0 0 1 -0.0005 0.4375)" id="344617">
<radialGradient id="SVGID_6" gradientUnits="userSpaceOnUse" gradientTransform="matrix(0 349.759 -349.759 0 332 332.938)" cx="0" cy="0" r="1" fx="0" fy="0">
<stop offset="0%" style="stop-color:rgb(255,255,255);stop-opacity: 1"/>
<stop offset="100%" style="stop-color:rgb(255,255,255);stop-opacity: 0"/>
</radialGradient>
<path style="stroke: none; stroke-width: 1; stroke-dasharray: none; stroke-linecap: butt; stroke-dashoffset: 0; stroke-linejoin: miter; stroke-miterlimit: 4; is-custom-font: none; font-file-url: none; fill: url(#SVGID_6); fill-rule: nonzero; opacity: 0.2;" transform=" translate(-331.9995, -332.9375)" d="M 663.459 504.085 V 333.877 H 663.999 V 331.998 H 663.459 V 161.791 C 663.449 120.049 647.205 79.9474 618.163 49.9658 V 46.8775 H 663.459 V 44.9858 H 619.475 L 661.709 2.52078 L 660.422 1.23396 L 618.201 43.699 V 2.1476 H 616.323 V 44.9858 H 613.131 C 583.581 16.7383 544.283 0.962883 503.404 0.937988 H 160.042 C 119.18 0.976116 79.9032 16.7505 50.3661 44.9858 H 47.162 V 2.1476 H 45.2961 V 43.6604 L 3.0755 1.19535 L 1.78868 2.48217 L 44.0092 44.9472 H 2.67659 V 46.826 H 45.2961 V 49.9658 C 16.25 79.9451 0.00579511 120.048 0 161.791 V 504.085 C 0.00579511 545.827 16.25 585.93 45.2961 615.909 V 619.049 H 2.67659 V 620.928 H 43.9706 L 1.75008 663.393 L 3.0369 664.68 L 45.2575 622.215 V 663.728 H 47.1234 V 620.889 H 50.3275 C 79.8742 649.134 119.167 664.909 160.042 664.937 H 503.404 C 544.27 664.902 583.552 649.128 613.093 620.889 H 616.284 V 663.728 H 618.163 V 622.215 L 660.383 664.68 L 661.67 663.393 L 619.437 620.928 H 663.999 V 619.049 H 618.163 V 615.909 C 647.198 585.923 663.441 545.825 663.459 504.085 Z M 661.58 504.085 C 661.577 544.662 646.041 583.698 618.163 613.181 V 451.904 H 660.911 V 450.038 H 618.163 V 333.877 H 661.58 V 504.085 Z M 449.525 450.038 L 448.238 448.751 C 450.374 446.581 452.446 444.35 454.453 442.06 V 450.038 H 449.525 Z M 454.453 451.917 V 454.993 L 451.391 451.917 H 454.453 Z M 210.073 450.038 V 443.282 C 211.746 445.148 213.471 446.963 215.221 448.751 L 213.934 450.038 H 210.073 Z M 212.068 451.917 L 210.073 453.899 V 451.904 L 212.068 451.917 Z M 213.934 215.837 L 215.221 217.124 C 213.471 218.912 211.746 220.74 210.073 222.593 V 215.837 H 213.934 Z M 210.073 213.958 V 211.977 L 212.068 213.971 L 210.073 213.958 Z M 454.453 215.837 V 223.815 C 452.446 221.525 450.374 219.294 448.238 217.124 L 449.525 215.837 H 454.453 Z M 451.391 213.958 L 454.453 210.883 V 213.958 H 451.391 Z M 454.453 331.985 H 450.052 C 449.857 301.112 437.666 271.524 416.055 249.474 L 446.938 218.462 C 449.512 221.096 452.026 223.828 454.479 226.659 L 454.453 331.985 Z M 456.319 228.885 C 480.321 257.894 493.511 294.334 493.637 331.985 H 456.319 V 228.885 Z M 414.729 250.761 C 436.001 272.447 448 301.558 448.187 331.934 H 333.981 L 414.729 250.761 Z M 332.669 330.544 V 215.837 C 362.941 216.048 391.925 228.115 413.404 249.449 L 332.669 330.544 Z M 330.79 330.544 L 250.042 249.359 C 271.545 228.064 300.528 216.032 330.79 215.837 V 330.544 Z M 329.503 331.831 H 215.272 C 215.466 301.456 227.464 272.348 248.729 250.658 L 329.503 331.831 Z M 329.503 333.71 L 248.755 414.882 C 227.49 393.193 215.492 364.084 215.298 333.71 H 329.503 Z M 330.79 334.997 V 450.038 C 300.512 449.826 271.523 437.754 250.042 416.414 L 330.79 334.997 Z M 332.669 334.997 L 413.404 416.169 C 391.969 437.601 362.979 449.763 332.669 450.038 V 334.997 Z M 333.956 333.71 H 448.148 C 447.961 364.086 435.962 393.197 414.691 414.882 L 333.956 333.71 Z M 445.587 217.124 L 414.704 248.149 C 397.752 231.332 376.09 220.063 352.589 215.837 H 444.275 L 445.587 217.124 Z M 332.669 213.958 V 170.116 C 373.451 170.316 412.636 185.99 442.306 213.971 L 332.669 213.958 Z M 330.79 213.958 H 221.153 C 250.817 185.969 290.006 170.294 330.79 170.103 V 213.958 Z M 310.857 215.837 C 287.349 220.064 265.678 231.332 248.717 248.149 L 217.833 217.124 L 219.12 215.837 H 310.857 Z M 216.546 218.411 L 247.43 249.423 C 225.809 271.466 213.615 301.058 213.432 331.934 H 210.099 V 225.437 C 212.171 223.056 214.32 220.727 216.546 218.475 V 218.411 Z M 208.208 331.934 H 169.77 C 169.914 293.706 183.523 256.751 208.208 227.56 V 331.934 Z M 208.208 333.813 V 438.187 C 183.523 408.996 169.914 372.041 169.77 333.813 H 208.208 Z M 210.073 333.813 H 213.406 C 213.587 364.685 225.781 394.274 247.404 416.311 L 216.52 447.336 C 214.294 445.084 212.145 442.755 210.086 440.374 L 210.073 333.813 Z M 217.872 448.751 L 248.755 417.726 C 265.707 434.537 287.362 445.804 310.857 450.038 H 219.184 L 217.872 448.751 Z M 330.79 451.917 V 495.772 C 290.006 495.581 250.817 479.906 221.153 451.917 H 330.79 Z M 332.669 451.917 H 442.306 C 412.636 479.898 373.451 495.572 332.669 495.772 V 451.917 Z M 352.589 450.038 C 376.099 445.817 397.771 434.548 414.729 417.726 L 445.613 448.751 L 444.326 450.038 H 352.589 Z M 446.913 447.465 L 416.029 416.439 C 437.643 394.397 449.835 364.812 450.027 333.941 H 454.428 V 439.268 C 452.026 442.047 449.521 444.779 446.913 447.465 Z M 456.319 333.941 H 493.637 C 493.511 371.592 480.321 408.032 456.319 437.041 V 333.941 Z M 495.554 332.063 C 495.411 293.201 481.511 255.645 456.319 226.054 V 215.837 H 555.276 C 573.903 251.725 583.668 291.551 583.753 331.985 L 495.554 332.063 Z M 456.319 214.035 V 209.068 L 510.597 154.52 C 527.98 172.126 542.698 192.176 554.285 214.035 H 456.319 Z M 456.319 206.417 V 112.66 C 475.677 123.752 493.482 137.355 509.272 153.117 L 456.319 206.417 Z M 454.453 208.296 L 448.753 214.035 H 445.034 C 414.881 184.857 374.627 168.446 332.669 168.225 V 79.5884 C 375.332 79.6821 417.26 90.7046 454.453 111.605 V 208.296 Z M 330.79 168.225 C 288.842 168.423 248.589 184.806 218.425 213.958 H 214.706 L 210.073 209.3 V 110.987 C 247.008 90.475 288.542 79.6676 330.79 79.5756 V 168.225 Z M 208.208 207.434 L 154.161 153.117 C 170.252 137.067 188.431 123.255 208.208 112.055 V 207.434 Z M 208.208 210.098 V 213.958 H 109.122 C 120.705 192.096 135.424 172.045 152.81 154.443 L 208.208 210.098 Z M 208.208 215.85 V 224.729 C 182.35 254.5 168.043 292.566 167.891 331.998 H 79.7056 C 79.789 291.56 89.5537 251.729 108.183 215.837 L 208.208 215.85 Z M 167.891 333.877 C 168.043 373.309 182.35 411.376 208.208 441.146 V 450.038 H 108.183 C 89.5557 414.15 79.7911 374.324 79.7056 333.89 L 167.891 333.877 Z M 208.208 451.904 V 455.765 L 152.874 511.394 C 135.488 493.791 120.77 473.741 109.187 451.878 L 208.208 451.904 Z M 208.208 458.441 V 553.82 C 188.431 542.62 170.252 528.808 154.161 512.758 L 208.208 458.441 Z M 210.073 456.562 L 214.706 451.904 H 218.425 C 248.587 481.061 288.84 497.449 330.79 497.651 V 586.313 C 288.542 586.21 247.009 575.398 210.073 554.888 V 456.562 Z M 332.669 497.651 C 374.617 497.45 414.869 481.067 445.034 451.917 H 448.753 L 454.453 457.656 V 554.271 C 417.259 575.169 375.332 586.195 332.669 586.3 V 497.651 Z M 456.319 459.535 L 509.272 512.771 C 493.476 528.526 475.672 542.129 456.319 553.228 V 459.535 Z M 456.319 456.884 V 451.917 H 554.285 C 542.698 473.777 527.98 493.827 510.597 511.432 L 456.319 456.884 Z M 456.319 450.038 V 439.898 C 481.511 410.307 495.411 372.752 495.554 333.89 H 583.753 C 583.668 374.324 573.903 414.15 555.276 450.038 H 456.319 Z M 585.619 333.89 H 616.284 V 450.038 H 557.386 C 575.862 414.1 585.539 374.287 585.619 333.877 V 333.89 Z M 585.619 332.011 C 585.541 291.597 575.864 251.78 557.386 215.837 H 616.284 V 331.985 L 585.619 332.011 Z M 556.395 213.984 C 544.651 191.619 529.664 171.113 511.923 153.13 L 615.1 49.4511 L 615.19 49.5283 C 615.576 49.9272 615.962 50.3519 616.348 50.8151 V 213.971 L 556.395 213.984 Z M 613.685 48.1514 L 510.597 151.792 C 494.435 135.66 476.179 121.771 456.319 110.498 V 46.8646 H 612.346 L 613.685 48.1514 Z M 454.453 109.456 C 417.202 88.7297 375.298 77.8021 332.669 77.6968 V 46.8131 H 454.453 V 109.456 Z M 332.669 44.9858 V 2.81674 H 454.453 V 44.9858 H 332.669 Z M 330.79 44.9858 H 210.073 V 2.81674 H 330.79 V 44.9858 Z M 330.79 46.8646 V 77.7483 C 288.576 77.8471 247.064 88.5603 210.073 108.902 V 46.8646 H 330.79 Z M 208.208 109.919 C 187.938 121.29 169.32 135.383 152.874 151.805 L 49.7871 48.1643 L 51.0739 46.8775 H 208.208 V 109.919 Z M 48.333 49.5283 L 48.4102 49.4511 L 151.536 153.117 C 133.787 171.096 118.796 191.603 107.051 213.971 H 47.162 V 50.7637 C 47.6124 50.3519 47.9341 49.9272 48.333 49.5283 Z M 106.073 215.837 C 87.5987 251.772 77.9223 291.58 77.8398 331.985 H 47.162 V 215.837 H 106.073 Z M 77.8398 333.864 C 77.9183 374.278 87.5948 414.096 106.073 450.038 H 47.162 V 333.877 L 77.8398 333.864 Z M 107.051 451.891 C 118.796 474.259 133.787 494.766 151.536 512.745 L 48.4102 616.424 L 48.333 616.347 C 47.9341 615.948 47.5609 615.523 47.162 615.06 V 451.904 L 107.051 451.891 Z M 49.7742 617.724 L 152.861 514.083 C 169.311 530.506 187.927 544.602 208.195 555.982 V 619.036 H 51.1125 L 49.7742 617.724 Z M 210.073 557.025 C 247.064 577.366 288.576 588.08 330.79 588.178 V 619.062 H 210.073 V 557.025 Z M 330.79 620.889 V 663.058 H 210.073 V 620.889 H 330.79 Z M 332.669 620.889 H 454.453 V 663.058 H 332.669 V 620.889 Z M 332.669 619.011 V 588.127 C 375.298 588.022 417.202 577.094 454.453 556.368 V 618.959 L 332.669 619.011 Z M 456.319 555.377 C 476.179 544.104 494.435 530.216 510.597 514.083 L 613.685 617.724 L 612.398 619.011 H 456.319 V 555.377 Z M 615.1 616.347 L 615.01 616.424 L 511.897 512.758 C 529.639 494.775 544.625 474.269 556.37 451.904 H 616.258 V 615.112 L 615.1 616.347 Z M 661.58 161.791 V 331.998 H 618.163 V 215.837 H 660.911 V 213.958 H 618.163 V 52.7325 C 646.032 82.2061 661.567 121.227 661.58 161.791 Z M 610.39 44.9472 H 456.319 V 2.81674 H 503.404 C 543.114 2.84607 581.34 17.9129 610.39 44.9858 V 44.9472 Z M 160.003 2.77814 H 208.208 V 44.9472 H 53.0685 C 82.1211 17.8902 120.341 2.83755 160.042 2.81674 L 160.003 2.77814 Z M 1.86589 504.085 V 161.791 C 1.87391 121.212 17.4138 82.1759 45.2961 52.6939 V 213.932 H 2.57364 V 215.837 H 45.2961 V 331.985 H 2.41922 V 333.864 H 45.2961 V 450.038 H 2.57364 V 451.917 H 45.2961 V 613.156 C 17.4199 583.68 1.88049 544.654 1.86589 504.085 Z M 53.0685 620.928 H 208.208 V 663.097 H 160.042 C 120.331 663.055 82.1092 647.975 53.0685 620.889 V 620.928 Z M 503.456 663.097 H 456.319 V 620.889 H 610.39 C 581.338 647.96 543.114 663.027 503.404 663.058 L 503.456 663.097 Z" stroke-linecap="round"/>
</g>
		<g transform="matrix(1 0 0 1 -209.7459 277.104)" id="643990">
<path style="stroke: none; stroke-width: 1; stroke-dasharray: none; stroke-linecap: butt; stroke-dashoffset: 0; stroke-linejoin: miter; stroke-miterlimit: 4; is-custom-font: none; font-file-url: none; fill: rgb(255,255,255); fill-opacity: 0.1; fill-rule: nonzero; opacity: 1;" transform=" translate(-122.2542, -609.604)" d="M 82.8643 584.71 C 82.8643 579.582 82.8643 577.019 83.8779 575.067 C 84.7321 573.423 86.0729 572.082 87.7173 571.228 C 89.6687 570.214 92.2324 570.214 97.3597 570.214 H 147.148 C 152.276 570.214 154.839 570.214 156.791 571.228 C 158.435 572.082 159.776 573.423 160.63 575.067 C 161.644 577.019 161.644 579.582 161.644 584.71 V 634.499 C 161.644 639.626 161.644 642.19 160.63 644.141 C 159.776 645.785 158.435 647.126 156.791 647.98 C 154.839 648.994 152.276 648.994 147.148 648.994 H 97.3597 C 92.2324 648.994 89.6687 648.994 87.7173 647.98 C 86.0729 647.126 84.7321 645.785 83.8779 644.141 C 82.8643 642.19 82.8643 639.626 82.8643 634.499 V 584.71 Z" stroke-linecap="round"/>
</g>
		<g transform="matrix(1 0 0 1 -209.7458 277.104)" id="382332">
<path style="stroke: rgb(255,255,255); stroke-opacity: 0.2; stroke-width: 0.9379; stroke-dasharray: none; stroke-linecap: butt; stroke-dashoffset: 0; stroke-linejoin: miter; stroke-miterlimit: 4; is-custom-font: none; font-file-url: none; fill: none; fill-rule: nonzero; opacity: 1;" transform=" translate(-122.2542, -609.604)" d="M 147.148 569.745 H 97.3597 H 97.3374 C 94.7926 569.745 92.8539 569.745 91.3087 569.874 C 89.7534 570.003 88.5549 570.264 87.5012 570.812 C 85.7711 571.711 84.3605 573.121 83.4618 574.851 C 82.9144 575.905 82.6528 577.104 82.5236 578.659 C 82.3953 580.204 82.3953 582.143 82.3953 584.687 V 584.71 V 634.499 V 634.521 C 82.3953 637.066 82.3953 639.004 82.5236 640.55 C 82.6528 642.105 82.9144 643.303 83.4618 644.357 C 84.3605 646.087 85.7711 647.498 87.5012 648.396 C 88.5549 648.944 89.7534 649.205 91.3087 649.335 C 92.8538 649.463 94.7924 649.463 97.3371 649.463 H 97.3597 H 147.148 H 147.171 C 149.716 649.463 151.654 649.463 153.199 649.335 C 154.755 649.205 155.953 648.944 157.007 648.396 C 158.737 647.498 160.148 646.087 161.046 644.357 C 161.594 643.303 161.855 642.105 161.985 640.55 C 162.113 639.004 162.113 637.066 162.113 634.521 V 634.499 V 584.71 V 584.687 C 162.113 582.143 162.113 580.204 161.985 578.659 C 161.855 577.104 161.594 575.905 161.046 574.851 C 160.148 573.121 158.737 571.711 157.007 570.812 C 155.953 570.264 154.755 570.003 153.199 569.874 C 151.654 569.745 149.716 569.745 147.171 569.745 H 147.148 Z" stroke-linecap="round"/>
</g>
		<g transform="matrix(1 0 0 1 -209.747 277.1045)" id="496463" clip-path="url(#CLIPPATH_9)">
<clipPath id="CLIPPATH_9">
	<rect transform="matrix(1 0 0 1 0.0004 0.0002)" id="clip0_415_11747" x="-27.19775" y="-27.19775" rx="0" ry="0" width="54.3955" height="54.3955"/>
</clipPath>
<path style="stroke: none; stroke-width: 1; stroke-dasharray: none; stroke-linecap: butt; stroke-dashoffset: 0; stroke-linejoin: miter; stroke-miterlimit: 4; is-custom-font: none; font-file-url: none; fill: rgb(255,255,255); fill-rule: nonzero; opacity: 1;" transform=" translate(-122.2531, -609.6045)" d="M 98.4551 582.407 H 146.051 L 141.722 631.279 L 122.201 636.802 L 102.789 631.277 L 98.4551 582.407 Z M 137.189 592.409 L 107.317 592.402 L 107.8 598.345 L 130.748 598.349 L 130.17 604.505 H 115.12 L 115.664 610.337 H 129.676 L 128.846 618.321 L 122.251 620.144 L 115.551 618.308 L 115.125 613.525 H 109.21 L 109.867 622.263 L 122.253 626.123 L 134.431 622.655 L 137.189 592.411 V 592.409 Z" stroke-linecap="round"/>
</g>
		<g transform="matrix(1 0 0 1 2.332 -227.3359)" id="973435">
<path style="stroke: none; stroke-width: 1; stroke-dasharray: none; stroke-linecap: butt; stroke-dashoffset: 0; stroke-linejoin: miter; stroke-miterlimit: 4; is-custom-font: none; font-file-url: none; fill: rgb(255,255,255); fill-opacity: 0.1; fill-rule: nonzero; opacity: 1;" transform=" translate(-334.332, -105.1641)" d="M 359.185 66.2432 H 309.479 C 301.709 66.2432 295.411 72.5415 295.411 80.311 V 130.017 C 295.411 137.787 301.709 144.085 309.479 144.085 H 359.185 C 366.955 144.085 373.253 137.787 373.253 130.017 V 80.311 C 373.253 72.5415 366.955 66.2432 359.185 66.2432 Z" stroke-linecap="round"/>
</g>
		<g transform="matrix(1 0 0 1 2.332 -227.3358)" id="647012">
<path style="stroke: rgb(255,255,255); stroke-opacity: 0.2; stroke-width: 0.9379; stroke-dasharray: none; stroke-linecap: butt; stroke-dashoffset: 0; stroke-linejoin: miter; stroke-miterlimit: 4; is-custom-font: none; font-file-url: none; fill: none; fill-rule: nonzero; opacity: 1;" transform=" translate(-334.332, -105.1641)" d="M 359.185 65.7742 H 309.479 C 301.451 65.7742 294.942 72.2825 294.942 80.311 V 130.017 C 294.942 138.046 301.451 144.554 309.479 144.554 H 359.185 C 367.214 144.554 373.722 138.046 373.722 130.017 V 80.311 C 373.722 72.2826 367.214 65.7742 359.185 65.7742 Z" stroke-linecap="round"/>
</g>
		<g transform="matrix(1 0 0 1 9.556 -212.721)" id="691395">
<path style="stroke: none; stroke-width: 1; stroke-dasharray: none; stroke-linecap: butt; stroke-dashoffset: 0; stroke-linejoin: miter; stroke-miterlimit: 4; is-custom-font: none; font-file-url: none; fill: rgb(255,255,255); fill-rule: nonzero; opacity: 1;" transform=" translate(-341.556, -119.779)" d="M 347.7 127.057 C 349.268 129.617 351.308 131.499 354.916 131.499 C 357.947 131.499 359.883 129.984 359.883 127.891 C 359.883 125.383 357.894 124.494 354.558 123.035 L 352.729 122.251 C 347.451 120.002 343.944 117.185 343.944 111.229 C 343.944 105.743 348.124 101.567 354.657 101.567 C 359.307 101.567 362.651 103.186 365.06 107.424 L 359.364 111.081 C 358.11 108.832 356.757 107.946 354.657 107.946 C 352.514 107.946 351.156 109.305 351.156 111.081 C 351.156 113.275 352.515 114.164 355.654 115.523 L 357.482 116.306 C 363.697 118.971 367.206 121.688 367.206 127.797 C 367.206 134.383 362.033 137.991 355.085 137.991 C 348.292 137.991 343.903 134.753 341.756 130.51 L 347.7 127.057 Z M 321.861 127.691 C 323.01 129.73 324.055 131.453 326.568 131.453 C 328.971 131.453 330.487 130.513 330.487 126.857 V 101.985 H 337.802 V 126.956 C 337.802 134.53 333.361 137.977 326.879 137.977 C 321.023 137.977 317.631 134.946 315.906 131.296 L 321.861 127.691 Z" stroke-linecap="round"/>
</g>
		<g transform="matrix(1 0 0 1 -161.5722 -267.4437)" id="961809">
<rect style="stroke: none; stroke-width: 1; stroke-dasharray: none; stroke-linecap: butt; stroke-dashoffset: 0; stroke-linejoin: miter; stroke-miterlimit: 4; is-custom-font: none; font-file-url: none; fill: rgb(255,255,255); fill-opacity: 0.1; fill-rule: nonzero; opacity: 1;" x="-39.3898" y="-39.3898" rx="15.0056" ry="15.0056" width="78.7796" height="78.7796"/>
</g>
		<g transform="matrix(1 0 0 1 -161.5722 -267.4436)" id="219097">
<rect style="stroke: rgb(255,255,255); stroke-opacity: 0.2; stroke-width: 0.9379; stroke-dasharray: none; stroke-linecap: butt; stroke-dashoffset: 0; stroke-linejoin: miter; stroke-miterlimit: 4; is-custom-font: none; font-file-url: none; fill: none; fill-rule: nonzero; opacity: 1;" x="-39.85875" y="-39.85875" rx="15.4746" ry="15.4746" width="79.7175" height="79.7175"/>
</g>
		<g transform="matrix(0.9999 0.0115 -0.0115 0.9999 122.7032 40.2764)" id="817579">
<rect style="stroke: none; stroke-width: 1; stroke-dasharray: none; stroke-linecap: butt; stroke-dashoffset: 0; stroke-linejoin: miter; stroke-miterlimit: 4; is-custom-font: none; font-file-url: none; fill: rgb(255,255,255); fill-opacity: 0.1; fill-rule: nonzero; opacity: 1;" x="-39.38985" y="-39.38985" rx="14.0678" ry="14.0678" width="78.7797" height="78.7797"/>
</g>
		<g transform="matrix(0.9999 0.0115 -0.0115 0.9999 122.7027 40.2766)" id="325127">
<rect style="stroke: rgb(255,255,255); stroke-opacity: 0.2; stroke-width: 0.9379; stroke-dasharray: none; stroke-linecap: butt; stroke-dashoffset: 0; stroke-linejoin: miter; stroke-miterlimit: 4; is-custom-font: none; font-file-url: none; fill: none; fill-rule: nonzero; opacity: 1;" x="-39.85875" y="-39.85875" rx="14.5367" ry="14.5367" width="79.7175" height="79.7175"/>
</g>
		<g transform="matrix(1 0 0 1 -82.1981 -127.1102)" id="960372">
<rect style="stroke: none; stroke-width: 1; stroke-dasharray: none; stroke-linecap: butt; stroke-dashoffset: 0; stroke-linejoin: miter; stroke-miterlimit: 4; is-custom-font: none; font-file-url: none; fill: rgb(255,255,255); fill-opacity: 0.1; fill-rule: nonzero; opacity: 1;" x="-39.38985" y="-39.38985" rx="14.0678" ry="14.0678" width="78.7797" height="78.7797"/>
</g>
		<g transform="matrix(1 0 0 1 -82.1982 -127.1102)" id="870582">
<rect style="stroke: rgb(255,255,255); stroke-opacity: 0.2; stroke-width: 0.9379; stroke-dasharray: none; stroke-linecap: butt; stroke-dashoffset: 0; stroke-linejoin: miter; stroke-miterlimit: 4; is-custom-font: none; font-file-url: none; fill: none; fill-rule: nonzero; opacity: 1;" x="-39.85875" y="-39.85875" rx="14.5367" ry="14.5367" width="79.7175" height="79.7175"/>
</g>
		<g transform="matrix(1 0 0 1 68.0099 -76.3151)" id="734958">
<rect style="stroke: none; stroke-width: 1; stroke-dasharray: none; stroke-linecap: butt; stroke-dashoffset: 0; stroke-linejoin: miter; stroke-miterlimit: 4; is-custom-font: none; font-file-url: none; fill: rgb(255,255,255); fill-opacity: 0.1; fill-rule: nonzero; opacity: 1;" x="-39.38985" y="-39.38985" rx="14.0678" ry="14.0678" width="78.7797" height="78.7797"/>
</g>
		<g transform="matrix(1 0 0 1 68.0098 -76.3152)" id="902155">
<rect style="stroke: rgb(255,255,255); stroke-opacity: 0.2; stroke-width: 0.9379; stroke-dasharray: none; stroke-linecap: butt; stroke-dashoffset: 0; stroke-linejoin: miter; stroke-miterlimit: 4; is-custom-font: none; font-file-url: none; fill: none; fill-rule: nonzero; opacity: 1;" x="-39.85875" y="-39.85875" rx="14.5367" ry="14.5367" width="79.7175" height="79.7175"/>
</g>
		<g transform="matrix(1 0 0 1 -40.464 10.285)" id="836851">
<path style="stroke: none; stroke-width: 1; stroke-dasharray: none; stroke-linecap: butt; stroke-dashoffset: 0; stroke-linejoin: miter; stroke-miterlimit: 4; is-custom-font: none; font-file-url: none; fill: rgb(255,255,255); fill-opacity: 0.1; fill-rule: nonzero; opacity: 1;" transform=" translate(-291.536, -342.785)" d="M 322.855 303.864 H 260.217 C 256.019 303.864 252.615 307.268 252.615 311.466 V 374.104 C 252.615 378.303 256.019 381.706 260.217 381.706 H 322.855 C 327.054 381.706 330.457 378.303 330.457 374.104 V 311.466 C 330.457 307.268 327.054 303.864 322.855 303.864 Z" stroke-linecap="round"/>
</g>
		<g transform="matrix(1 0 0 1 -40.464 10.2851)" id="845733">
<path style="stroke: rgb(255,255,255); stroke-opacity: 0.2; stroke-width: 0.9379; stroke-dasharray: none; stroke-linecap: butt; stroke-dashoffset: 0; stroke-linejoin: miter; stroke-miterlimit: 4; is-custom-font: none; font-file-url: none; fill: none; fill-rule: nonzero; opacity: 1;" transform=" translate(-291.536, -342.785)" d="M 322.855 303.395 H 260.217 C 255.76 303.395 252.146 307.009 252.146 311.466 V 374.104 C 252.146 378.562 255.76 382.175 260.217 382.175 H 322.855 C 327.313 382.175 330.926 378.562 330.926 374.104 V 311.466 C 330.926 307.009 327.313 303.395 322.855 303.395 Z" stroke-linecap="round"/>
</g>
		<g transform="matrix(1 0 0 1 -35.0485 25.2135)" id="690963">
<path style="stroke: none; stroke-width: 1; stroke-dasharray: none; stroke-linecap: butt; stroke-dashoffset: 0; stroke-linejoin: miter; stroke-miterlimit: 4; is-custom-font: none; font-file-url: none; fill: rgb(255,255,255); fill-rule: evenodd; opacity: 1;" transform=" translate(-296.9515, -357.7135)" d="M 300.517 365.852 V 373.454 C 301.748 374.093 303.253 374.564 304.926 374.883 C 306.598 375.202 308.422 375.354 310.247 375.354 C 312.071 375.354 313.744 375.187 315.416 374.838 C 317.088 374.488 318.457 373.91 319.673 373.165 C 320.904 372.359 321.954 371.341 322.562 369.972 C 323.17 368.604 323.641 367.084 323.641 365.107 C 323.641 363.724 323.428 362.523 323.018 361.458 C 322.607 360.394 322.014 359.482 321.193 358.722 C 320.418 357.916 319.521 357.201 318.457 356.593 C 317.392 355.985 316.176 355.347 314.808 354.769 C 313.804 354.358 312.983 353.963 312.071 353.568 C 311.281 353.173 310.597 352.777 310.095 352.382 C 309.532 351.971 309.107 351.546 308.803 351.105 C 308.498 350.649 308.346 350.147 308.346 349.585 C 308.346 349.068 308.482 348.596 308.757 348.171 C 309.032 347.745 309.411 347.395 309.897 347.091 C 310.384 346.787 310.992 346.559 311.722 346.392 C 312.436 346.225 313.227 346.149 314.154 346.149 C 314.793 346.149 315.462 346.196 316.131 346.291 C 316.83 346.387 317.545 346.535 318.259 346.732 C 318.974 346.93 319.673 347.173 320.388 347.477 C 321.057 347.781 321.68 348.131 322.212 348.526 V 341.381 C 321.057 340.94 319.779 340.605 318.411 340.393 C 317.043 340.18 315.522 340.073 313.698 340.073 C 311.874 340.073 310.201 340.271 308.529 340.651 C 306.856 341.031 305.488 341.639 304.272 342.475 C 303.04 343.296 302.143 344.3 301.383 345.668 C 300.669 346.945 300.319 348.405 300.319 350.229 C 300.319 352.51 300.973 354.486 302.295 356.006 C 303.603 357.679 305.64 358.895 308.225 360.111 C 309.274 360.537 310.201 360.963 311.113 361.373 C 312.026 361.784 312.786 362.21 313.394 362.65 C 314.048 363.091 314.565 363.578 314.914 364.095 C 315.294 364.612 315.492 365.22 315.492 365.919 C 315.492 366.406 315.373 366.862 315.142 367.287 C 314.911 367.713 314.549 368.078 314.063 368.382 C 313.576 368.686 312.983 368.929 312.239 369.112 C 311.524 369.279 310.718 369.37 309.654 369.37 C 307.982 369.37 306.309 369.081 304.789 368.504 C 303.116 367.926 301.596 367.059 300.228 365.919 L 300.517 365.852 Z M 287.746 347.152 H 297.476 V 340.919 H 270.262 V 347.152 H 279.992 V 374.974 H 287.746 V 347.152 Z" stroke-linecap="round"/>
</g>
		<g transform="matrix(1 0 0 1 -9.9831 147.6808)" id="941173">
<rect style="stroke: none; stroke-width: 1; stroke-dasharray: none; stroke-linecap: butt; stroke-dashoffset: 0; stroke-linejoin: miter; stroke-miterlimit: 4; is-custom-font: none; font-file-url: none; fill: rgb(255,255,255); fill-opacity: 0.1; fill-rule: nonzero; opacity: 1;" x="-39.38985" y="-39.38985" rx="14.0678" ry="14.0678" width="78.7797" height="78.7797"/>
</g>
		<g transform="matrix(1 0 0 1 -9.9832 147.6808)" id="578812">
<rect style="stroke: rgb(255,255,255); stroke-opacity: 0.2; stroke-width: 0.9379; stroke-dasharray: none; stroke-linecap: butt; stroke-dashoffset: 0; stroke-linejoin: miter; stroke-miterlimit: 4; is-custom-font: none; font-file-url: none; fill: none; fill-rule: nonzero; opacity: 1;" x="-39.85875" y="-39.85875" rx="14.5367" ry="14.5367" width="79.7175" height="79.7175"/>
</g>
		<g transform="matrix(1 0 0 1 -9.909 147.7581)" id="289765" clip-path="url(#CLIPPATH_10)">
<clipPath id="CLIPPATH_10">
	<rect transform="matrix(1 0 0 1 0.0017 -0.0014)" id="clip2_415_11747" x="-27.27465" y="-27.27465" rx="0" ry="0" width="54.5493" height="54.5493"/>
</clipPath>
<path style="stroke: none; stroke-width: 1; stroke-dasharray: none; stroke-linecap: butt; stroke-dashoffset: 0; stroke-linejoin: miter; stroke-miterlimit: 4; is-custom-font: none; font-file-url: none; fill: rgb(255,255,255); fill-rule: nonzero; opacity: 1;" transform=" translate(-322.091, -480.2581)" d="M 322.093 453.657 C 307.025 453.657 294.818 465.874 294.818 480.932 C 294.818 492.989 302.633 503.208 313.462 506.814 C 314.831 507.071 315.326 506.227 315.326 505.498 C 315.326 504.85 315.31 503.137 315.3 500.863 C 307.709 502.506 306.11 497.196 306.11 497.196 C 304.867 494.052 303.074 493.209 303.074 493.209 C 300.606 491.523 303.27 491.559 303.27 491.559 C 306.004 491.744 307.443 494.363 307.443 494.363 C 309.876 498.536 313.825 497.329 315.389 496.627 C 315.627 494.869 316.338 493.66 317.112 492.987 C 311.057 492.303 304.69 489.96 304.69 479.508 C 304.69 476.523 305.747 474.093 307.494 472.183 C 307.193 471.5 306.269 468.721 307.735 464.964 C 307.735 464.964 310.017 464.236 315.235 467.761 C 317.419 467.156 319.737 466.855 322.054 466.839 C 324.372 466.855 326.689 467.158 328.872 467.761 C 334.06 464.236 336.341 464.964 336.341 464.964 C 337.805 468.721 336.881 471.498 336.615 472.183 C 338.345 474.093 339.402 476.525 339.402 479.508 C 339.402 489.983 333.027 492.293 326.965 492.96 C 327.913 493.776 328.801 495.455 328.801 498.004 C 328.801 501.652 328.767 504.591 328.767 505.479 C 328.767 506.188 329.244 507.04 330.649 506.766 C 341.559 503.198 349.364 492.97 349.364 480.93 C 349.364 465.873 337.157 453.655 322.09 453.655 L 322.093 453.657 Z" stroke-linecap="round"/>
</g>
		<g transform="matrix(1 0 0 1 -162.8542 123.2969)" id="450706">
<rect style="stroke: none; stroke-width: 1; stroke-dasharray: none; stroke-linecap: butt; stroke-dashoffset: 0; stroke-linejoin: miter; stroke-miterlimit: 4; is-custom-font: none; font-file-url: none; fill: rgb(255,255,255); fill-opacity: 0.1; fill-rule: nonzero; opacity: 1;" x="-39.38985" y="-39.38985" rx="14.0678" ry="14.0678" width="78.7797" height="78.7797"/>
</g>
		<g transform="matrix(1 0 0 1 -162.8542 123.2968)" id="759644">
<rect style="stroke: rgb(255,255,255); stroke-opacity: 0.2; stroke-width: 0.9379; stroke-dasharray: none; stroke-linecap: butt; stroke-dashoffset: 0; stroke-linejoin: miter; stroke-miterlimit: 4; is-custom-font: none; font-file-url: none; fill: none; fill-rule: nonzero; opacity: 1;" x="-39.85875" y="-39.85875" rx="14.5367" ry="14.5367" width="79.7175" height="79.7175"/>
</g>
		<g transform="matrix(1 0 0 1 -162.3603 126.5414)" id="663381">
<linearGradient id="SVGID_7" gradientUnits="userSpaceOnUse" gradientTransform="matrix(1 0 0 1 0 0)" x1="144.529" y1="440.397" x2="169.558" y2="474.388">
<stop offset="0%" style="stop-color:rgb(255,255,255);stop-opacity: 0"/>
<stop offset="100%" style="stop-color:rgb(255,255,255);stop-opacity: 1"/>
</linearGradient>
<path style="stroke: none; stroke-width: 1; stroke-dasharray: none; stroke-linecap: butt; stroke-dashoffset: 0; stroke-linejoin: miter; stroke-miterlimit: 4; is-custom-font: none; font-file-url: none; fill: url(#SVGID_7); fill-rule: nonzero; opacity: 1;" transform=" translate(-169.6397, -459.0414)" d="M 194.178 438.911 L 170.971 480.409 C 170.492 481.266 169.261 481.271 168.774 480.418 L 145.107 438.915 C 144.577 437.986 145.372 436.86 146.425 437.049 L 169.657 441.201 C 169.805 441.228 169.957 441.227 170.105 441.2 L 192.851 437.054 C 193.9 436.863 194.698 437.98 194.178 438.911 V 438.911 Z" stroke-linecap="round"/>
</g>
		<g transform="matrix(1 0 0 1 -158.6896 119.7387)" id="651303">
<linearGradient id="SVGID_8" gradientUnits="userSpaceOnUse" gradientTransform="matrix(1 0 0 1 0 0)" x1="171.81" y1="432.516" x2="176.958" y2="467.836">
<stop offset="0.01%" style="stop-color:rgb(255,255,255);stop-opacity: 1"/>
</linearGradient>
<path style="stroke: none; stroke-width: 1; stroke-dasharray: none; stroke-linecap: butt; stroke-dashoffset: 0; stroke-linejoin: miter; stroke-miterlimit: 4; is-custom-font: none; font-file-url: none; fill: url(#SVGID_8); fill-rule: nonzero; opacity: 1;" transform=" translate(-173.3104, -452.2387)" d="M 180.723 431.602 L 163.549 434.967 C 163.412 434.994 163.288 435.066 163.196 435.171 C 163.104 435.276 163.049 435.409 163.041 435.549 L 161.985 453.391 C 161.979 453.489 161.996 453.587 162.034 453.677 C 162.073 453.767 162.132 453.847 162.207 453.91 C 162.282 453.973 162.37 454.018 162.466 454.041 C 162.561 454.064 162.66 454.065 162.756 454.043 L 167.537 452.939 C 167.985 452.836 168.389 453.23 168.297 453.68 L 166.876 460.636 C 166.781 461.105 167.22 461.505 167.677 461.366 L 170.631 460.469 C 171.089 460.33 171.529 460.731 171.432 461.2 L 169.174 472.126 C 169.033 472.81 169.942 473.183 170.321 472.597 L 170.574 472.205 L 184.569 444.277 C 184.803 443.81 184.399 443.277 183.885 443.376 L 178.963 444.326 C 178.501 444.415 178.108 443.984 178.238 443.532 L 181.45 432.396 C 181.581 431.942 181.186 431.511 180.723 431.602 H 180.723 Z" stroke-linecap="round"/>
</g>
		<g transform="matrix(1 0 0 1 -188.1752 -38.9521)" id="29739">
<rect style="stroke: none; stroke-width: 1; stroke-dasharray: none; stroke-linecap: butt; stroke-dashoffset: 0; stroke-linejoin: miter; stroke-miterlimit: 4; is-custom-font: none; font-file-url: none; fill: rgb(255,255,255); fill-opacity: 0.1; fill-rule: nonzero; opacity: 1;" x="-39.38985" y="-39.38985" rx="14.0678" ry="14.0678" width="78.7797" height="78.7797"/>
</g>
		<g transform="matrix(1 0 0 1 -188.1752 -38.9522)" id="862833">
<rect style="stroke: rgb(255,255,255); stroke-opacity: 0.2; stroke-width: 0.9379; stroke-dasharray: none; stroke-linecap: butt; stroke-dashoffset: 0; stroke-linejoin: miter; stroke-miterlimit: 4; is-custom-font: none; font-file-url: none; fill: none; fill-rule: nonzero; opacity: 1;" x="-39.85875" y="-39.85875" rx="14.5367" ry="14.5367" width="79.7175" height="79.7175"/>
</g>
		<g transform="matrix(1 0 0 1 30.3449 266.7878)" id="561895">
<rect style="stroke: none; stroke-width: 1; stroke-dasharray: none; stroke-linecap: butt; stroke-dashoffset: 0; stroke-linejoin: miter; stroke-miterlimit: 4; is-custom-font: none; font-file-url: none; fill: rgb(255,255,255); fill-opacity: 0.1; fill-rule: nonzero; opacity: 1;" x="-39.38985" y="-39.38985" rx="14.0678" ry="14.0678" width="78.7797" height="78.7797"/>
</g>
		<g transform="matrix(1 0 0 1 30.3448 266.7888)" id="689359">
<rect style="stroke: rgb(255,255,255); stroke-opacity: 0.2; stroke-width: 0.9379; stroke-dasharray: none; stroke-linecap: butt; stroke-dashoffset: 0; stroke-linejoin: miter; stroke-miterlimit: 4; is-custom-font: none; font-file-url: none; fill: none; fill-rule: nonzero; opacity: 1;" x="-39.85875" y="-39.85875" rx="14.5367" ry="14.5367" width="79.7175" height="79.7175"/>
</g>
		<g transform="matrix(1 0 0 1 30.3445 266.703)" id="973936">
<path style="stroke: none; stroke-width: 1; stroke-dasharray: none; stroke-linecap: butt; stroke-dashoffset: 0; stroke-linejoin: miter; stroke-miterlimit: 4; is-custom-font: none; font-file-url: none; fill: rgb(255,255,255); fill-rule: nonzero; opacity: 1;" transform=" translate(-362.3445, -599.203)" d="M 336.09 568.339 C 335.523 568.339 335.1 568.801 335.151 569.366 L 339.933 623.014 C 339.984 623.579 340.472 624.166 341.019 624.318 L 361.315 629.953 C 361.862 630.105 362.756 630.105 363.303 629.953 L 383.661 624.309 C 384.208 624.157 384.697 623.571 384.747 623.006 L 389.538 569.366 C 389.589 568.801 389.165 568.339 388.598 568.339 H 336.09 Z M 379.352 580.643 C 379.307 581.147 379.229 582.022 379.178 582.587 L 379.052 583.994 C 379.002 584.559 378.929 585.367 378.891 585.79 C 378.853 586.212 378.817 586.558 378.811 586.558 C 378.804 586.558 378.335 586.558 377.767 586.558 H 363.376 C 362.808 586.558 362.339 586.558 362.333 586.558 C 362.327 586.558 361.858 586.558 361.29 586.558 H 353.711 C 353.144 586.558 352.721 587.02 352.771 587.585 L 353.213 592.527 C 353.264 593.092 353.769 593.554 354.337 593.554 H 361.291 C 361.858 593.554 362.327 593.554 362.333 593.554 C 362.34 593.554 362.809 593.554 363.376 593.554 H 375.329 C 375.896 593.554 376.774 593.554 377.28 593.554 C 377.785 593.554 378.161 593.967 378.116 594.471 C 378.07 594.975 377.991 595.85 377.941 596.415 L 376.519 612.347 C 376.468 612.912 376.404 613.634 376.376 613.951 C 376.348 614.268 375.878 614.652 375.331 614.803 L 363.338 618.129 C 362.792 618.28 362.337 618.406 362.329 618.407 C 362.32 618.409 361.866 618.287 361.319 618.135 L 349.314 614.804 C 348.767 614.652 348.279 614.065 348.228 613.5 L 347.455 604.826 C 347.405 604.261 347.828 603.799 348.396 603.799 H 349.491 C 350.059 603.799 350.987 603.799 351.554 603.799 H 353.188 C 353.755 603.799 354.261 604.261 354.311 604.826 L 354.614 608.222 C 354.665 608.787 355.154 609.37 355.702 609.518 L 361.318 611.035 C 361.865 611.183 362.315 611.304 362.318 611.304 C 362.32 611.304 362.77 611.182 363.318 611.034 L 368.944 609.514 C 369.491 609.366 369.981 608.783 370.032 608.218 L 370.642 601.415 C 370.692 600.85 370.27 600.388 369.702 600.388 H 363.376 C 362.809 600.388 362.34 600.388 362.333 600.388 C 362.327 600.388 361.858 600.388 361.291 600.388 H 348.09 C 347.522 600.388 347.017 599.925 346.967 599.36 L 345.47 582.587 C 345.419 582.022 345.341 581.147 345.296 580.643 C 345.251 580.139 345.679 579.726 346.246 579.726 H 361.291 C 361.858 579.726 362.327 579.726 362.333 579.726 C 362.34 579.726 362.809 579.726 363.376 579.726 H 378.402 C 378.97 579.726 379.397 580.139 379.352 580.643 Z" stroke-linecap="round"/>
</g>
</g>
</g>
</svg>